<?xml version="1.0" encoding="UTF-8" standalone="no"?>
<!-- Created with Inkscape (http://www.inkscape.org/) -->

<svg
   xmlns:dc="http://purl.org/dc/elements/1.1/"
   xmlns:cc="http://creativecommons.org/ns#"
   xmlns:rdf="http://www.w3.org/1999/02/22-rdf-syntax-ns#"
   xmlns:svg="http://www.w3.org/2000/svg"
   xmlns="http://www.w3.org/2000/svg"
   xmlns:sodipodi="http://sodipodi.sourceforge.net/DTD/sodipodi-0.dtd"
   xmlns:inkscape="http://www.inkscape.org/namespaces/inkscape"
   width="210mm"
   height="297mm"
   viewBox="0 0 744.09448819 1052.3622047"
   id="svg2"
   version="1.1"
   inkscape:version="0.91 r13725"
   sodipodi:docname="drawing.svg">
  <defs
     id="defs4" />
  <sodipodi:namedview
     id="base"
     pagecolor="#ffffff"
     bordercolor="#666666"
     borderopacity="1.0"
     inkscape:pageopacity="0.0"
     inkscape:pageshadow="2"
     inkscape:zoom="0.56539469"
     inkscape:cx="372.04724"
     inkscape:cy="648.6559"
     inkscape:document-units="px"
     inkscape:current-layer="layer1"
     showgrid="false"
     inkscape:window-width="1440"
     inkscape:window-height="799"
     inkscape:window-x="0"
     inkscape:window-y="1"
     inkscape:window-maximized="1" />
  <metadata
     id="metadata7">
    <rdf:RDF>
      <cc:Work
         rdf:about="">
        <dc:format>image/svg+xml</dc:format>
        <dc:type
           rdf:resource="http://purl.org/dc/dcmitype/StillImage" />
        <dc:title></dc:title>
      </cc:Work>
    </rdf:RDF>
  </metadata>
  <g
     inkscape:label="Layer 1"
     inkscape:groupmode="layer"
     id="layer1">
    <path
       style="fill:none;fill-rule:evenodd;stroke:#000000;stroke-width:0.25853741px;stroke-linecap:butt;stroke-linejoin:miter;stroke-opacity:1"
       d="M 189.90981,590.81347 Z"
       id="path4233"
       inkscape:connector-curvature="0" />
    <g
       id="g4649"
       transform="matrix(1.7415456,0,0,1.7415456,-1205.813,-497.65977)">
      <path
         sodipodi:nodetypes="ccccscssccsccc"
         inkscape:connector-curvature="0"
         id="path3383"
         d="m 839.81601,544.87137 c 0,0 -6.07511,-18.58366 2.50135,-38.54275 24.29864,-1.03157 41.8086,19.61523 40.02185,16.51795 -1.78675,-3.09469 41.45105,-11.00852 70.3956,-1.71927 12.50701,-11.0137 38.5924,-15.14254 38.5924,-15.14254 6.80832,6.94173 3.21595,37.85505 3.21595,37.85505 0,0 17.01594,11.68848 17.15264,37.16734 0.1347,25.07813 -7.4839,48.34133 -13.9367,56.43613 0,0 -15.80646,15.14254 -50.74184,21.3371 -31.2184,5.91792 -23.97806,4.56318 -55.63493,1.56673 -12.50726,-2.06571 -24.76607,-4.66401 -45.49173,-19.46269 -20.72565,-14.7961 -20.01105,-44.04961 -20.01105,-44.04961 0,0 -4.23536,-26.12262 16.43755,-45.76629 z"
         style="fill:#333333;fill-rule:evenodd;stroke:#000000;stroke-width:0.24547173px;stroke-linecap:butt;stroke-linejoin:miter;stroke-opacity:1" />
      <path
         sodipodi:nodetypes="csscscssc"
         inkscape:connector-curvature="0"
         id="path3385"
         d="m 846.4462,593.45314 c 0,0 7.48388,-21.637 24.71954,-23.70012 15.26974,-1.82786 10.46068,-0.26113 35.06103,1.15307 20.65223,1.18669 48.93985,-1.47883 48.93985,-1.47883 7.75612,-1.10654 24.56648,-3.04299 34.53853,25.76584 9.97204,28.80882 -14.94502,49.90548 -29.34917,51.01202 -12.31517,2.93698 -38.6516,3.90391 -53.9609,2.63191 -18.53791,-1.54089 -36.20299,-0.67479 -50.60715,-16.18703 -14.40415,-15.51225 -9.34173,-39.19686 -9.34173,-39.19686 z"
         style="fill:#ffccaa;fill-rule:evenodd;stroke:#000000;stroke-width:0.25853741px;stroke-linecap:butt;stroke-linejoin:miter;stroke-opacity:1" />
      <path
         inkscape:connector-curvature="0"
         id="path3389"
         d="m 879.32544,590.86777 c 0,0 -12.88395,-0.22493 -12.65799,19.69538 0.22596,19.91772 12.88395,19.46528 12.88395,19.46528 0,0 12.88395,-0.67995 12.88395,-18.5604 0,-17.88045 -9.94567,-20.82519 -13.10991,-20.60026 z"
         style="fill:#ffffff;fill-rule:evenodd;stroke:#000000;stroke-width:0.22391793px;stroke-linecap:butt;stroke-linejoin:miter;stroke-opacity:1" />
      <path
         inkscape:connector-curvature="0"
         id="path3391"
         d="m 949.55997,591.05908 c 0,0 -12.74925,1.38835 -12.1223,21.04237 0.62695,19.65401 12.54036,19.19123 12.54036,19.19123 0,0 10.45008,0.46278 11.49509,-18.72845 1.04527,-19.19382 -11.91315,-21.50515 -11.91315,-21.50515 z"
         style="fill:#ffffff;fill-rule:evenodd;stroke:#000000;stroke-width:0.21762174px;stroke-linecap:butt;stroke-linejoin:miter;stroke-opacity:1" />
      <path
         inkscape:connector-curvature="0"
         id="path3393"
         d="m 876.73308,596.28413 c 0,0 -8.61834,0.52224 -9.66283,15.1477 -1.04475,14.62547 9.92396,15.40883 9.66283,15.14771 -0.26112,-0.26112 9.92422,-1.56932 10.18534,-14.88658 0.26113,-13.31985 -10.18534,-15.40883 -10.18534,-15.40883 z"
         style="fill:#d35f5f;fill-rule:evenodd;stroke:#000000;stroke-width:0.25853741px;stroke-linecap:butt;stroke-linejoin:miter;stroke-opacity:1" />
      <path
         inkscape:connector-curvature="0"
         id="path3395"
         d="m 946.47924,627.33447 c 0,0 -9.66154,-2.1381 -9.1393,-16.8463 0.52225,-14.70819 9.40042,-13.63785 9.40042,-13.63785 0,0 8.87818,-1.87439 10.18353,14.4419 1.30588,16.31113 -10.44465,16.04225 -10.44465,16.04225 z"
         style="fill:#d35f5f;fill-rule:evenodd;stroke:#000000;stroke-width:0.26159579px;stroke-linecap:butt;stroke-linejoin:miter;stroke-opacity:1" />
      <path
         sodipodi:nodetypes="ccc"
         inkscape:connector-curvature="0"
         id="path3397"
         d="m 913.86449,631.09102 c 0,0 -8.35697,-3.3946 -0.26113,-8.35593 9.1406,4.17796 0.26113,8.35593 0.26113,8.35593 z"
         style="fill:#d35f5f;fill-rule:evenodd;stroke:#000000;stroke-width:0.25853741px;stroke-linecap:butt;stroke-linejoin:miter;stroke-opacity:1" />
      <path
         sodipodi:nodetypes="ccssccc"
         inkscape:connector-curvature="0"
         id="path3399"
         d="m 915.29032,639.45729 c 0,0 2.61175,-0.78337 6.00686,-6.26953 l 1.30561,0.78337 c 0.98296,0.58946 -2.65414,7.48983 -8.87946,7.57514 -6.26721,0.0853 -8.61861,-7.31402 -8.61861,-7.31402 l 1.30613,-1.30562 c 0,0 3.65624,7.31403 8.87947,6.53066 z"
         style="fill:#c83737;fill-rule:evenodd;stroke:#000000;stroke-width:0.25853741px;stroke-linecap:butt;stroke-linejoin:miter;stroke-opacity:1" />
      <path
         sodipodi:nodetypes="csscssccscccscccssssc"
         inkscape:connector-curvature="0"
         id="path4177"
         d="m 900.08237,465.58312 c 0,0 -29.3078,4.83465 -44.94543,9.97954 0,0 -14.76766,-6.86417 -23.1148,10.60521 -0.81026,1.69342 -24.39921,7.43812 -31.46194,31.76391 -6.89105,10.76808 -16.78838,32.49556 -11.55739,64.91616 0,0 16.05207,1.87181 14.12571,-0.62566 -1.92611,-2.4923 1.28441,-16.84113 12.1996,-13.09492 10.91545,3.74362 7.27395,7.03997 7.91616,13.89897 0,0 36.38707,-19.51441 76.83809,-20.14007 27.63559,-0.42658 98.87971,8.11032 111.07933,18.09245 12.1993,9.98213 -10.2733,-6.86158 9.631,-12.47701 19.9043,-5.61544 14.7677,12.47701 13.4838,14.34624 -1.2842,1.87181 12.1993,3.11796 12.8413,-0.62566 0.6422,-3.73846 8.9896,-50.5208 -45.5874,-97.30315 -1.3382,-1.77873 -11.61377,-7.52085 -15.40987,-3.11796 0,0 -20.54649,-16.8463 -49.44012,-15.59498 0,0 1.28468,-8.11031 -7.06246,-6.2385 -8.34714,1.86922 6.42077,-6.23851 1.9261,-6.23851 -4.49441,0 -16.05207,4.98977 -14.76791,5.61026 1.28441,0.62825 5.77882,-9.97437 1.28441,-10.59745 -4.49493,-0.62566 -1.28441,10.59745 -17.97818,16.84113 z"
         style="opacity:1;fill:#3771c8;fill-rule:evenodd;stroke:#000000;stroke-width:0.3132467px;stroke-linecap:butt;stroke-linejoin:miter;stroke-opacity:1" />
      <path
         sodipodi:nodetypes="ccscccccsccssccsccsc"
         inkscape:connector-curvature="0"
         id="path4179"
         d="m 822.65119,583.01857 c -2.42017,-2.41991 59.55255,-27.45409 97.49705,-22.31953 36.21075,3.39718 80.84106,10.70086 99.93246,25.88476 8.0385,6.39622 -15.156,13.13887 -15.0487,10.72413 0.235,-0.2637 -4.2325,-12.55457 0,-12.81311 0,0 -12.46226,11.76604 -19.28118,7.84403 -5.63689,1.77615 -4.72348,-10.67501 -2.58641,-13.59907 2.11613,-2.87752 -15.04843,18.04332 -23.27819,16.474 -8.22977,-1.56674 -4.81164,-27.10765 -11.52147,-28.24004 -3.97475,-0.66961 -6.64932,8.96866 -13.40283,10.98267 -4.70254,-3.39977 -5.17308,-2.88011 -12.9323,-14.38761 -9.71506,2.63708 -9.22152,11.45838 -12.69729,14.38761 0,0 -15.02361,-6.38846 -15.75398,-14.11873 -0.73451,-7.77163 -6.68785,17.80806 -5.64336,27.97375 -9.93119,2.55176 -25.15905,-9.41076 -27.51045,-15.94659 -2.35139,-6.53583 2.36381,15.53034 -4.23251,16.2103 -9.64422,0.99537 -15.75424,-7.05807 -19.04568,-11.24121 -1.64611,-7.05807 2.82142,17.77962 -2.58692,16.474 -7.54464,1.6624 -12.72599,-0.94107 -15.04843,-6.53841 -1.99643,-4.81138 3.45561,-7.75095 3.14019,-7.75095 z"
         style="fill:#f2f2f2;fill-rule:evenodd;stroke:#000000;stroke-width:0.3471438px;stroke-linecap:butt;stroke-linejoin:miter;stroke-opacity:1" />
      <path
         sodipodi:nodetypes="ccsccc"
         inkscape:connector-curvature="0"
         id="path4189"
         d="m 842.65734,486.74699 c 0,0 -25.26247,1.43747 -36.39509,27.10507 -1.75237,3.64796 -10.91132,20.72953 -11.91392,46.73839 -0.35032,9.09535 72.93056,2.53367 77.85285,-11.82809 1.79813,-14.67717 -4.71236,-30.02395 -6.85072,-38.60739 -4.71004,-8.82647 -8.1354,-22.17475 -22.69312,-23.40798 z"
         style="fill:#5fbcd3;fill-rule:evenodd;stroke:#000000;stroke-width:0.29353604px;stroke-linecap:butt;stroke-linejoin:miter;stroke-opacity:1" />
      <path
         sodipodi:nodetypes="csscccc"
         inkscape:connector-curvature="0"
         id="path4191"
         d="m 1005.2652,492.48652 c 0,0 -10.21893,-13.4517 -22.61166,-4.34084 -12.39273,9.11344 -19.21269,27.28604 -21.95914,36.01943 -3.03522,9.65379 -5.45022,22.78491 -0.65229,26.46906 4.78346,3.68675 31.5258,16.92128 52.83269,12.58302 21.3071,-4.33826 24.5682,-8.24476 21.7417,-17.57279 -2.8202,-9.29959 -4.4999,-31.34766 -29.3513,-53.15788 z"
         style="fill:#5fbcd3;fill-rule:evenodd;stroke:#000000;stroke-width:0.30406719px;stroke-linecap:butt;stroke-linejoin:miter;stroke-opacity:1" />
      <path
         style="fill:#000000;fill-rule:evenodd;stroke:#000000;stroke-width:0.31393695px;stroke-linecap:butt;stroke-linejoin:miter;stroke-opacity:1"
         d="m 842.08493,498.058 c 0,0 -22.49766,-1.11688 -29.50274,17.83133 -7.00481,18.95079 -1.86819,31.87508 7.47148,36.6089 9.33992,4.74158 36.42533,1.29527 48.56703,-6.02651 3.23146,-21.40431 -10.27635,-37.47241 -10.74094,-37.90158 -0.46692,-0.43176 -7.38926,-7.92935 -15.79483,-10.51214 z"
         id="path4193"
         inkscape:connector-curvature="0"
         sodipodi:nodetypes="cccccc" />
      <path
         style="fill:#f2f2f2;fill-rule:evenodd;stroke:#000000;stroke-width:0.35999832px;stroke-linecap:butt;stroke-linejoin:miter;stroke-opacity:1"
         d="m 848.0755,524.21424 c 0,0 -10.24118,3.72035 -11.37952,-6.50739 -1.13782,-10.22516 11.54912,-6.34192 11.71562,-4.04611 4.02905,5.02855 3.12701,9.23495 -0.3361,10.5535 z"
         id="path4195"
         inkscape:connector-curvature="0"
         sodipodi:nodetypes="cscc" />
      <path
         style="fill:#000000;fill-rule:evenodd;stroke:#000000;stroke-width:0.32453755px;stroke-linecap:butt;stroke-linejoin:miter;stroke-opacity:1"
         d="m 991.01438,497.38322 c 0,0 23.27562,1.57191 27.72502,24.96437 4.45,23.39506 -9.5837,29.82747 -18.3122,31.08396 -8.72847,1.25649 -27.9316,1.52278 -35.7689,-7.6889 -1.88267,-7.85437 -1.09982,-17.89338 5.4766,-32.81616 5.82562,-13.21643 16.90886,-15.65444 20.87948,-15.54327 z"
         id="path4199"
         inkscape:connector-curvature="0"
         sodipodi:nodetypes="csscsc" />
      <path
         sodipodi:nodetypes="ccscc"
         inkscape:connector-curvature="0"
         id="path4201"
         d="m 978.2703,511.43473 c 0,0 8.7458,-1.68308 8.27991,7.47949 -0.4695,9.15739 -10.36114,6.72456 -10.31124,5.97997 0.0776,-1.11171 -3.12572,-0.73166 -2.65311,-7.66564 -0.30482,-3.97372 4.38634,-6.2928 4.68444,-5.79382 z"
         style="fill:#f9f9f9;fill-rule:evenodd;stroke:#000000;stroke-width:0.33831108px;stroke-linecap:butt;stroke-linejoin:miter;stroke-opacity:1" />
      <path
         sodipodi:nodetypes="cccsccc"
         inkscape:connector-curvature="0"
         id="path4203"
         d="m 934.67959,509.99726 c 0.0401,0 -18.37141,-6.01358 -34.90255,-0.18356 -12.92687,6.27729 -18.46681,10.71121 -18.83626,21.97568 -0.36919,11.26448 18.06298,20.54856 26.22319,23.08222 6.53247,2.02952 11.76423,2.78704 24.56106,-1.10654 10.71069,-6.27987 18.34892,-11.87462 20.86759,-24.7472 -0.73864,-10.15535 -12.92687,-17.72791 -17.91303,-19.0206 z"
         style="fill:#161650;fill-rule:evenodd;stroke:#000000;stroke-width:0.25853741px;stroke-linecap:butt;stroke-linejoin:miter;stroke-opacity:1" />
      <path
         sodipodi:nodetypes="ccscc"
         inkscape:connector-curvature="0"
         id="path4205"
         d="m 887.19687,536.59818 c 0,0 3.97398,-6.07305 10.15509,1.08844 8.93661,11.67038 11.68977,15.2382 11.25827,15.83542 -0.7676,1.06 -9.93404,-1.51762 -19.64703,-10.85082 -4.89515,-3.40752 -1.32785,-4.93548 -1.76633,-6.07304 z"
         style="fill:#000000;fill-rule:evenodd;stroke:#000000;stroke-width:0.30636749px;stroke-linecap:butt;stroke-linejoin:miter;stroke-opacity:1" />
      <path
         sodipodi:nodetypes="ccscc"
         inkscape:connector-curvature="0"
         id="path4207"
         d="m 944.96628,533.87061 c 0,0 -7.78741,-1.56932 -11.46484,5.6206 -7.14727,10.07262 -6.92208,10.1114 -6.92208,13.93258 0,3.82119 15.14228,-8.31456 16.22374,-10.11398 1.08146,-1.79684 6.05701,-6.2928 2.16318,-9.4392 z"
         style="fill:#000000;fill-rule:evenodd;stroke:#000000;stroke-width:0.30867675px;stroke-linecap:butt;stroke-linejoin:miter;stroke-opacity:1" />
      <path
         sodipodi:nodetypes="ccsccc"
         inkscape:connector-curvature="0"
         id="path4215"
         d="m 986.57193,411.01621 c -0.16805,-0.20941 0.44675,39.33905 3.69347,51.70749 1.50675,7.59324 3.90624,15.63634 16.9895,28.0694 16.239,15.4321 27.4293,32.49299 28.8719,35.6187 3.2116,2.60865 8.9493,-57.14711 -23.7011,-85.84735 -25.22113,-47.80357 -26.63378,-31.65273 -25.85377,-29.54824 z"
         style="fill:#3771c8;fill-rule:evenodd;stroke:#000000;stroke-width:0.25853741px;stroke-linecap:butt;stroke-linejoin:miter;stroke-opacity:1" />
      <path
         style="fill:#cd87de;fill-rule:evenodd;stroke:#000000;stroke-width:0.25853741px;stroke-linecap:butt;stroke-linejoin:miter;stroke-opacity:1"
         d="m 969.5824,385.15988 c 0,0 -50.96884,-65.00406 -17.72842,-62.04898 33.24067,2.95509 79.31332,56.43614 88.64132,72.39048 11.1477,19.06714 16.5193,19.07489 15.8473,37.10271 -4.4499,15.72166 -5.4946,9.87095 -18.0632,21.99119 -3.7224,3.5885 -1.4773,3.6945 22.8989,12.55975 14.5642,34.37513 -9.8045,47.74927 -9.8045,47.74927 -6.8644,8.09222 -11.5845,8.29905 -15.3106,11.34462 -0.7386,4.43134 15.9053,-25.39096 -24.3762,-85.68705 -27.90701,-41.77448 -44.32052,-56.1414 -42.1046,-55.40199 z"
         id="path4217"
         inkscape:connector-curvature="0"
         sodipodi:nodetypes="csscscccsc" />
      <path
         sodipodi:nodetypes="csccc"
         inkscape:connector-curvature="0"
         id="path4219"
         d="m 1036.1519,526.80995 c 3.8178,-10.33633 6.6051,-5.03889 20.358,-17.67879 7.9586,-7.31402 9.3084,-22.00153 9.3084,-22.00153 0,0 6.7261,42.40789 -20.2311,64.70157 -4.2201,-12.86482 -6.1118,-17.84942 -9.4353,-25.02125 z"
         style="fill:#3771c8;fill-rule:evenodd;stroke:#000000;stroke-width:0.3344909px;stroke-linecap:butt;stroke-linejoin:miter;stroke-opacity:1" />
      <path
         sodipodi:nodetypes="ccccc"
         inkscape:connector-curvature="0"
         id="path4223"
         d="m 847.43123,404.31492 c 0,0 -52.64365,52.37451 -50.14902,71.34082 -1.70299,-1.23581 -17.78712,32.36371 -8.13566,57.24535 9.05036,13.43102 0.46925,-22.909 42.70108,-46.59361 14.11278,-16.9885 -13.61484,-37.94812 15.5836,-81.99256 z"
         style="fill:#3771c8;fill-rule:evenodd;stroke:#000000;stroke-width:0.33961746px;stroke-linecap:butt;stroke-linejoin:miter;stroke-opacity:1" />
      <path
         style="fill:#cd87de;fill-rule:evenodd;stroke:#000000;stroke-width:0.26544812px;stroke-linecap:butt;stroke-linejoin:miter;stroke-opacity:1"
         d="m 854.65321,331.39444 c 0,0 52.06142,-22.94002 27.87964,24.02847 -19.02887,36.95792 -41.71268,62.58674 -63.78531,85.1131 -16.68627,17.02986 -35.93877,73.92619 -27.10869,95.25036 -5.17798,-6.35226 -2.77384,-8.8213 -24.43488,-29.29488 -13.31003,-47.78288 5.83674,-75.72043 8.80319,-84.28061 1.41007,-4.06938 3.9277,-13.67146 25.42121,-36.65285 10.16156,-10.86374 21.96586,1.2203 21.96586,1.2203 0,0 -5.06914,-37.46466 12.25002,-45.61117 17.31916,-8.14393 19.00896,-9.77272 19.00896,-9.77272 z"
         id="path4225"
         inkscape:connector-curvature="0"
         sodipodi:nodetypes="cssccsscsc" />
      <path
         sodipodi:nodetypes="ccccc"
         inkscape:connector-curvature="0"
         id="path4227"
         d="m 763.78171,490.86032 c 0.87644,7.60359 11.43976,23.99228 13.86019,25.56677 0,0 9.54029,4.40806 15.09548,19.30499 0,0 -4.30698,12.16677 -4.05981,16.20512 0.24742,4.03577 -26.96985,-29.94639 -24.89586,-61.07688 z"
         style="fill:#3771c8;fill-rule:evenodd;stroke:#000000;stroke-width:0.25853741px;stroke-linecap:butt;stroke-linejoin:miter;stroke-opacity:1" />
      <path
         inkscape:connector-curvature="0"
         id="path4237"
         d="m 769.24253,583.08062 9.07182,-4.30982 c 0,0 -7.72768,-8.92212 -10.0796,-6.76851 -2.35191,2.15103 -0.33609,7.38642 1.00778,11.07833 z"
         style="fill:#000080;fill-rule:evenodd;stroke:#000000;stroke-width:0.29101452px;stroke-linecap:butt;stroke-linejoin:miter;stroke-opacity:1" />
      <path
         sodipodi:nodetypes="cccc"
         inkscape:connector-curvature="0"
         id="path4239"
         d="m 811.18997,569.84092 8.7365,3.54455 c 0,0 4.21803,-8.99969 1.2053,-10.91028 -1.66576,-0.9023 -8.83216,3.96338 -9.9418,7.36573 z"
         style="fill:#000080;fill-rule:evenodd;stroke:#000000;stroke-width:0.25947198px;stroke-linecap:butt;stroke-linejoin:miter;stroke-opacity:1" />
      <path
         sodipodi:nodetypes="ccsc"
         inkscape:connector-curvature="0"
         id="path4241"
         d="m 843.18294,594.52607 4.28448,7.14081 c 0,0 9.9979,-4.28656 7.99838,-9.14189 -1.99953,-4.85533 -11.71175,1.71411 -12.28286,2.00108 z"
         style="fill:#000080;fill-rule:evenodd;stroke:#000000;stroke-width:0.25853741px;stroke-linecap:butt;stroke-linejoin:miter;stroke-opacity:1" />
      <path
         sodipodi:nodetypes="cccc"
         inkscape:connector-curvature="0"
         id="path4243"
         d="m 841.46884,630.23009 -0.85705,7.99915 c 0,0 10.56901,3.14123 12.28285,-2.85684 -1.14248,-5.99807 -11.4258,-5.14231 -11.4258,-5.14231 z"
         style="fill:#000080;fill-rule:evenodd;stroke:#000000;stroke-width:0.25853741px;stroke-linecap:butt;stroke-linejoin:miter;stroke-opacity:1" />
      <path
         inkscape:connector-curvature="0"
         id="path4245"
         d="m 996.86043,637.0865 -0.57137,-9.1393 c 0,0 -11.4258,-0.28697 -10.56875,2.85684 0.85679,3.14123 7.99811,6.85383 11.14012,6.28246 z"
         style="fill:#000080;fill-rule:evenodd;stroke:#000000;stroke-width:0.25853741px;stroke-linecap:butt;stroke-linejoin:miter;stroke-opacity:1" />
      <path
         inkscape:connector-curvature="0"
         id="path4247"
         d="m 989.71911,603.09659 5.99858,-7.99915 c 0,0 -6.56995,-1.7141 -10.56901,-2.85425 -3.99905,-1.14274 0.85705,11.70916 4.57043,10.8534 z"
         style="fill:#000080;fill-rule:evenodd;stroke:#000000;stroke-width:0.25853741px;stroke-linecap:butt;stroke-linejoin:miter;stroke-opacity:1" />
      <path
         inkscape:connector-curvature="0"
         id="path4249"
         d="m 1016.5698,571.10517 9.1408,-2.00108 c 0,0 -3.7134,-6.85383 -9.1408,-9.99764 -5.4272,-3.14123 0,11.99872 0,11.99872 z"
         style="fill:#000080;fill-rule:evenodd;stroke:#000000;stroke-width:0.25853741px;stroke-linecap:butt;stroke-linejoin:miter;stroke-opacity:1" />
      <path
         inkscape:connector-curvature="0"
         id="path4251"
         d="m 1058.8456,576.24489 7.7124,5.4267 c 0,0 2.8563,-8.57051 2.8563,-11.99614 0,-3.4282 -8.8549,0.56879 -10.5687,6.56944 z"
         style="fill:#000080;fill-rule:evenodd;stroke:#000000;stroke-width:0.25853741px;stroke-linecap:butt;stroke-linejoin:miter;stroke-opacity:1" />
      <path
         style="fill:#3771c8;fill-rule:evenodd;stroke:#000000;stroke-width:0.28022602px;stroke-linecap:butt;stroke-linejoin:miter;stroke-opacity:1"
         d="m 769.78184,599.14614 c 0.28258,-0.0569 -9.94309,24.68773 8.36757,37.73353 22.00877,15.35971 37.71724,2.96284 41.98182,1.69084 4.11695,-1.22547 3.80438,9.403 16.03578,3.93235 14.38347,-6.43758 11.74691,-30.77629 -4.4047,-24.27408 -5.1149,2.05796 1.81545,-7.75871 1.81054,-7.75612 10.0721,2.92147 20.85595,-4.67177 14.63839,-14.34883 -8.20598,-12.01423 -20.58243,0.14737 -20.89241,0.76527 -0.30999,0.61791 -8.58241,-9.19876 -8.58241,-9.19876 0.42555,-0.23785 13.81934,-13.28882 -2.63398,-18.09762 -11.19519,-5.27157 -16.19116,5.71627 -14.87573,12.37619 -4.20614,-0.52742 -15.24104,0.96176 -14.25601,2.16396 0.0388,0.1241 -1.36301,-9.15998 -17.19998,-4.94841 -4.68082,4.14436 -7.39494,10.4656 0.0104,19.96168 z"
         id="path4253"
         inkscape:connector-curvature="0"
         sodipodi:nodetypes="ccsssccsccccccc" />
      <path
         style="fill:#3771c8;fill-rule:evenodd;stroke:#000000;stroke-width:0.28005794px;stroke-linecap:butt;stroke-linejoin:miter;stroke-opacity:1"
         d="m 1053.0724,640.58451 c -0.01,0 12.5991,-5.55855 16.5697,-16.09912 5.0492,-13.4 -2.2191,-24.85579 -2.6547,-25.07813 -0.05,-0.0284 6.7814,-4.65885 6.3393,-11.45838 -2.6285,-7.89573 -8.3492,-13.77746 -16.5435,-12.84931 -8.1946,0.92815 -8.04,8.05086 -7.8857,8.51364 0.1549,0.46536 -12.72,-0.37747 -12.72,-0.37747 0.5796,0.93074 5.3613,-17.10483 -10.0607,-16.19478 -12.0673,0.57654 -16.0231,7.82076 -14.7206,11.82291 -0.3958,-0.58946 0.4599,8.3973 7.5332,9.19101 6.3743,0.71873 -10.6944,9.80115 -10.6944,9.80115 0,0 -8.65812,-8.66617 -14.53338,-5.1087 -5.87526,3.56265 -7.23284,14.71595 0.61842,16.87733 7.10226,1.95713 6.36446,1.30044 12.33146,7.80007 -3.7154,3.93494 -10.01031,-4.27879 -13.4137,9.53486 -2.78962,19.50665 11.5838,18.22947 13.915,17.29874 5.0081,-0.92815 6.4303,-8.62739 13.9153,-3.82894 8.9081,6.05236 29.6883,5.1268 32.0043,0.15512 z"
         id="path4255"
         inkscape:connector-curvature="0"
         sodipodi:nodetypes="cscccccccsccsccccc" />
      <path
         sodipodi:nodetypes="cscsccccccccscccccccccccscsccsc"
         inkscape:connector-curvature="0"
         id="path4257"
         d="m 857.76575,690.42277 c 10.34434,-28.37189 23.06877,-31.84922 23.06877,-31.84922 16.73177,3.85479 66.83813,3.80308 74.511,-3.10245 0,0 22.38185,11.66262 20.16101,57.27121 -2.24591,46.12307 0.29835,66.25021 12.24123,73.71936 11.94262,7.47173 1.79115,11.3653 1.79115,11.3653 0.0597,0.0336 -16.99832,7.55188 -32.99739,-23.38212 -4.94091,-8.56535 -4.55155,-60.76405 -4.5575,-60.76405 0,0 -1.25882,-20.09612 -5.43885,-21.72232 -4.17978,-1.62103 0,81.1911 0,81.1911 0,0 0,18.50869 7.46449,25.00056 7.46398,6.49705 1.79115,14.29195 -6.56866,9.74428 -8.36007,-4.54767 -25.6769,-9.41852 -25.37829,-40.26979 0.29835,-30.84868 -0.59748,-79.55972 -0.59748,-79.55972 l -5.97118,0.32317 -0.89557,89.62717 c -0.63911,14.32556 -17.51255,29.44741 -24.45661,28.98463 0,0 -17.39181,5.4448 -6.2959,-11.44545 9.37379,-17.86235 5.6599,-29.55083 6.86727,-29.55083 l 0.29835,-75.01722 c 0,0 -6.26979,-4.54767 -6.86727,37.01998 -0.59671,41.56764 -2.58357,42.21657 -2.58357,42.21657 -0.39271,2.26737 -2.35993,17.39957 -14.43466,24.68257 -13.1368,3.24464 -25.07968,4.87084 -22.69105,-3.89875 2.38837,-8.82388 9.55425,-1.46073 13.43541,-15.91297 5.48384,-20.41929 6.86727,-37.99208 2.98585,-54.55657 -3.69734,-17.64001 -21.48032,19.37221 -44.58891,-1.91059 -4.52441,-4.16762 -4.49028,-3.79275 -18.54955,-22.92193 -12.76373,-17.10742 -24.54269,-15.27956 -26.15778,-22.1489 -1.32061,-6.87968 19.2507,-2.41991 32.97697,3.41011 11.62203,4.93548 27.97168,50.56992 53.22872,13.45687 z"
         style="fill:#3771c8;fill-rule:evenodd;stroke:#000000;stroke-width:0.39856905px;stroke-linecap:butt;stroke-linejoin:miter;stroke-opacity:1" />
      <path
         inkscape:connector-curvature="0"
         id="path4287"
         d="m 763.3833,673.92808 1.68127,4.58387 c 0,0 -7.65891,1.58742 -7.75225,-0.2818 -0.0933,-1.87181 5.41714,-4.30207 6.07098,-4.30207 z"
         style="fill:#000080;fill-rule:evenodd;stroke:#000000;stroke-width:0.33837849px;stroke-linecap:butt;stroke-linejoin:miter;stroke-opacity:1" />
      <path
         inkscape:connector-curvature="0"
         id="path4289"
         d="m 768.80509,654.62827 -3.98329,2.4742 c 0,0 -5.02622,-6.14544 -2.27616,-6.06529 2.75032,0.0776 5.59578,2.87235 6.25945,3.59109 z"
         style="fill:#000080;fill-rule:evenodd;stroke:#000000;stroke-width:0.3149856px;stroke-linecap:butt;stroke-linejoin:miter;stroke-opacity:1" />
      <path
         inkscape:connector-curvature="0"
         id="path4291"
         d="m 779.76656,651.37587 4.3049,-1.16859 c 0,0 -1.07629,-5.73695 -2.51117,-5.73695 -1.43514,0 -2.51092,5.93343 -1.79373,6.90554 z"
         style="fill:#000080;fill-rule:evenodd;stroke:#000000;stroke-width:0.33810169px;stroke-linecap:butt;stroke-linejoin:miter;stroke-opacity:1" />
      <path
         inkscape:connector-curvature="0"
         id="path4293"
         d="m 797.42389,653.34592 4.58438,2.60864 c 0,0 3.2749,-4.9665 1.63732,-6.64699 -1.63732,-1.68308 -0.87308,0.16805 -6.2217,4.03835 z"
         style="fill:#000080;fill-rule:evenodd;stroke:#000000;stroke-width:0.34697506px;stroke-linecap:butt;stroke-linejoin:miter;stroke-opacity:1" />
      <path
         inkscape:connector-curvature="0"
         id="path4318"
         d="m 980.2282,727.72197 c 0,0 29.4854,-10.00282 38.0745,15.52775 8.5912,25.5254 -13.1316,25.98043 -15.4752,25.58487 -2.3421,-0.39815 -26.25942,-6.71681 -32.31281,-15.10893 -6.05391,-8.39213 -3.9533,-21.37846 9.71351,-26.00369 z"
         style="fill:#37c871;fill-rule:evenodd;stroke:#000000;stroke-width:0.10841973px;stroke-linecap:butt;stroke-linejoin:miter;stroke-opacity:1" />
      <path
         inkscape:connector-curvature="0"
         id="path4326"
         d="m 984.55017,748.3093 c 0,0 -7.85644,0.8842 -7.95856,-3.43855 -0.10186,-4.31757 0.51035,-5.98772 3.26507,-6.97017 2.75498,-0.98244 7.44846,0.19649 7.65245,3.43855 0.20424,3.23689 0.8162,4.31758 -2.95896,6.97017 z"
         style="fill:#11002b;fill-rule:evenodd;stroke:#000000;stroke-width:0.1281144px;stroke-linecap:butt;stroke-linejoin:miter;stroke-opacity:1" />
      <path
         inkscape:connector-curvature="0"
         id="path4330"
         d="m 982.46041,741.36498 c 0,0 4.28319,-2.66293 2.57012,-0.31024 -1.71358,2.35528 -3.28394,4.50631 -4.28345,4.60714 -0.9995,0.10341 -3.56936,1.73995 -2.28443,-0.10083 1.28493,-1.84337 3.71234,-3.89099 3.99776,-4.19607 z"
         style="fill:#ffff00;fill-rule:evenodd;stroke:#000000;stroke-width:0.15471764px;stroke-linecap:butt;stroke-linejoin:miter;stroke-opacity:1" />
      <path
         inkscape:connector-curvature="0"
         id="path4332"
         d="m 984.8586,746.16085 c 0,0 0.21356,2.85943 -2.12543,-0.23785 -2.3377,-3.10245 -2.87416,-5.36207 -2.87416,-5.36207 0,0 -1.7896,-2.65259 0.0657,-1.09878 1.85629,1.55122 4.82818,5.26641 4.93392,6.6987 z"
         style="fill:#ffff00;fill-rule:evenodd;stroke:#000000;stroke-width:0.16945322px;stroke-linecap:butt;stroke-linejoin:miter;stroke-opacity:1" />
      <path
         style="fill:#212178;fill-rule:evenodd;stroke:#000000;stroke-width:0.13793817px;stroke-linecap:butt;stroke-linejoin:miter;stroke-opacity:1"
         d="m 1007.2211,756.5825 c 0,0 -8.65872,0.93073 -8.77118,-3.61436 -0.11247,-4.5425 0.56206,-6.29797 3.59828,-7.33212 3.0363,-1.03156 8.2089,0.20683 8.4338,3.61436 0.2249,3.40752 0.8997,4.54508 -3.2609,7.33212 z"
         id="path4336"
         inkscape:connector-curvature="0" />
      <path
         inkscape:connector-curvature="0"
         id="path4338"
         d="m 1007.3676,751.40916 c 0,0 -1.757,0.19391 -1.78,-0.74458 -0.023,-0.93849 0.1143,-1.30045 0.7304,-1.51245 0.6161,-0.21458 1.6655,0.0414 1.7112,0.74459 0.046,0.70581 0.1826,0.93849 -0.6616,1.51244 z"
         style="fill:#37c871;fill-rule:evenodd;stroke:#000000;stroke-width:0.02822791px;stroke-linecap:butt;stroke-linejoin:miter;stroke-opacity:1" />
      <path
         style="fill:#37c871;fill-rule:evenodd;stroke:#000000;stroke-width:0.02979602px;stroke-linecap:butt;stroke-linejoin:miter;stroke-opacity:1"
         d="m 1003.7983,749.8476 c 0,0 -1.9582,0.19132 -1.9835,-0.74718 -0.026,-0.93849 0.1269,-1.29785 0.8136,-1.51502 0.6869,-0.20942 1.8566,0.0439 1.9072,0.74717 0.051,0.70322 0.2035,0.93849 -0.7373,1.51503 z"
         id="path4340"
         inkscape:connector-curvature="0" />
      <path
         inkscape:connector-curvature="0"
         id="path4342"
         d="m 1006.0214,754.98474 c 0,0 -1.7572,0.17839 -1.78,-0.70064 -0.023,-0.88161 0.114,-1.22288 0.7304,-1.42196 0.6163,-0.20166 1.666,0.0414 1.7118,0.70064 0.046,0.66186 0.1827,0.8842 -0.6622,1.42196 z"
         style="fill:#37c871;fill-rule:evenodd;stroke:#000000;stroke-width:0.02736574px;stroke-linecap:butt;stroke-linejoin:miter;stroke-opacity:1" />
      <path
         style="fill:#37c871;fill-rule:evenodd;stroke:#000000;stroke-width:0.02410811px;stroke-linecap:butt;stroke-linejoin:miter;stroke-opacity:1"
         d="m 1002.1442,753.56278 c 0,0 -1.4564,0.17064 -1.4755,-0.65668 -0.018,-0.82474 0.095,-1.14274 0.6052,-1.33147 0.5109,-0.18615 1.3809,0.0388 1.4186,0.65668 0.038,0.61791 0.1515,0.82474 -0.5483,1.33147 z"
         id="path4344"
         inkscape:connector-curvature="0" />
      <path
         inkscape:connector-curvature="0"
         id="path4356"
         d="m 982.71481,790.06568 -11.977,-14.57893 4.86179,-16.83337 17.7879,4.95875 3.91322,15.18132 z"
         style="fill:#37c871;fill-rule:evenodd;stroke:#000000;stroke-width:0.17088498px;stroke-linecap:butt;stroke-linejoin:miter;stroke-opacity:1" />
      <path
         style="fill:#3771c8;fill-rule:evenodd;stroke:#000000;stroke-width:0.39856905px;stroke-linecap:butt;stroke-linejoin:miter;stroke-opacity:1"
         d="m 857.76575,690.42277 c 10.34434,-28.37189 23.06877,-31.84922 23.06877,-31.84922 16.73177,3.85479 66.83813,3.80308 74.511,-3.10245 0,0 22.38185,11.66262 20.16101,57.27121 -2.24591,46.12307 0.29835,66.25021 12.24123,73.71936 11.94262,7.47173 1.79115,11.3653 1.79115,11.3653 0.0597,0.0336 -16.99832,7.55188 -32.99739,-23.38212 -4.94091,-8.56535 -4.55155,-60.76405 -4.5575,-60.76405 0,0 -1.25882,-20.09612 -5.43885,-21.72232 -4.17978,-1.62103 0,81.1911 0,81.1911 0,0 0,18.50869 7.46449,25.00056 7.46398,6.49705 1.79115,14.29195 -6.56866,9.74428 -8.36007,-4.54767 -25.6769,-9.41852 -25.37829,-40.26979 0.29835,-30.84868 -0.59748,-79.55972 -0.59748,-79.55972 l -5.97118,0.32317 -0.89557,89.62717 c -0.63911,14.32556 -17.51255,29.44741 -24.45661,28.98463 0,0 -17.39181,5.4448 -6.2959,-11.44545 9.37379,-17.86235 5.6599,-29.55083 6.86727,-29.55083 l 0.29835,-75.01722 c 0,0 -6.26979,-4.54767 -6.86727,37.01998 -0.59671,41.56764 -2.58357,42.21657 -2.58357,42.21657 -0.39271,2.26737 -2.35993,17.39957 -14.43466,24.68257 -13.1368,3.24464 -25.07968,4.87084 -22.69105,-3.89875 2.38837,-8.82388 9.55425,-1.46073 13.43541,-15.91297 5.48384,-20.41929 6.86727,-37.99208 2.98585,-54.55657 -3.69734,-17.64001 -21.48032,19.37221 -44.58891,-1.91059 -4.52441,-4.16762 -4.49028,-3.79275 -18.54955,-22.92193 -12.76373,-17.10742 -24.54269,-15.27956 -26.15778,-22.1489 -1.32061,-6.87968 19.2507,-2.41991 32.97697,3.41011 11.62203,4.93548 27.97168,50.56992 53.22872,13.45687 z"
         id="path4358"
         inkscape:connector-curvature="0"
         sodipodi:nodetypes="cscsccccccccscccccccccccscsccsc" />
      <path
         style="fill:#37c871;fill-rule:evenodd;stroke:#000000;stroke-width:0.25853741px;stroke-linecap:butt;stroke-linejoin:miter;stroke-opacity:1"
         d="m 975.43388,758.50343 c 0,0 -7.73466,1.272 -10.09899,7.071 -1.1479,2.81547 -5.90887,10.2355 2.0197,14.13682 7.82256,1.83562 4.79431,-7.8647 4.64566,-9.28924 -0.20968,-2.01143 0.40383,-6.06012 6.05934,-7.67598 5.6555,-1.61586 -2.62571,-4.2426 -2.62571,-4.2426 z"
         id="path4366"
         inkscape:connector-curvature="0"
         sodipodi:nodetypes="cscssc" />
      <path
         sodipodi:nodetypes="cscscc"
         inkscape:connector-curvature="0"
         id="path4370"
         d="m 978.74187,790.76114 c 0,0 5.6312,6.95208 12.82578,7.69666 4.77027,0.4964 8.09713,-0.93332 10.34125,-3.96338 1.2373,-1.27717 1.8113,-6.63407 -4.94687,-6.16094 -6.66147,0.46278 -10.7037,2.74567 -12.33688,-0.34903 -1.63319,-3.09469 -8.71866,1.15049 -5.88328,2.77669 z"
         style="fill:#37c871;fill-rule:evenodd;stroke:#000000;stroke-width:0.22621135px;stroke-linecap:butt;stroke-linejoin:miter;stroke-opacity:1" />
      <path
         sodipodi:nodetypes="csccccc"
         inkscape:connector-curvature="0"
         id="path4374"
         d="m 965.37936,785.78947 c 0,0 -5.29976,2.05796 -9.48444,-0.3361 -6.82772,-3.90908 -7.10849,-10.31306 1.65464,-7.17441 3.23973,-0.61791 5.80985,-2.52333 6.75635,-2.98869 3.58488,-1.34698 6.4805,0 6.4805,0 0,0 3.99854,1.49434 2.89562,3.13864 0.47416,1.38059 -7.1377,7.85437 -8.30267,7.36056 z"
         style="fill:#37c871;fill-rule:evenodd;stroke:#000000;stroke-width:0.183772px;stroke-linecap:butt;stroke-linejoin:miter;stroke-opacity:1" />
      <path
         sodipodi:nodetypes="cscsccccccccscccccccccccscsccsc"
         inkscape:connector-curvature="0"
         id="path4380"
         d="m 857.76575,690.42277 c 10.34434,-28.37189 23.06877,-31.84922 23.06877,-31.84922 16.73177,3.85479 66.83813,3.80308 74.511,-3.10245 0,0 22.38185,11.66262 20.16101,57.27121 -2.24591,46.12307 0.29835,66.25021 12.24123,73.71936 11.94262,7.47173 1.79115,11.3653 1.79115,11.3653 0.0597,0.0336 -16.99832,7.55188 -32.99739,-23.38212 -4.94091,-8.56535 -4.55155,-60.76405 -4.5575,-60.76405 0,0 -1.25882,-20.09612 -5.43885,-21.72232 -4.17978,-1.62103 0,81.1911 0,81.1911 0,0 0,18.50869 7.46449,25.00056 7.46398,6.49705 1.79115,14.29195 -6.56866,9.74428 -8.36007,-4.54767 -25.6769,-9.41852 -25.37829,-40.26979 0.29835,-30.84868 -0.59748,-79.55972 -0.59748,-79.55972 l -5.97118,0.32317 -0.89557,89.62717 c -0.63911,14.32556 -17.51255,29.44741 -24.45661,28.98463 0,0 -17.39181,5.4448 -6.2959,-11.44545 9.37379,-17.86235 5.6599,-29.55083 6.86727,-29.55083 l 0.29835,-75.01722 c 0,0 -6.26979,-4.54767 -6.86727,37.01998 -0.59671,41.56764 -2.58357,42.21657 -2.58357,42.21657 -0.39271,2.26737 -2.35993,17.39957 -14.43466,24.68257 -13.1368,3.24464 -25.07968,4.87084 -22.69105,-3.89875 2.38837,-8.82388 9.55425,-1.46073 13.43541,-15.91297 5.48384,-20.41929 6.86727,-37.99208 2.98585,-54.55657 -3.69734,-17.64001 -21.48032,19.37221 -44.58891,-1.91059 -4.52441,-4.16762 -4.49028,-3.79275 -18.54955,-22.92193 -12.76373,-17.10742 -24.54269,-15.27956 -26.15778,-22.1489 -1.32061,-6.87968 19.2507,-2.41991 32.97697,3.41011 11.62203,4.93548 27.97168,50.56992 53.22872,13.45687 z"
         style="fill:#3771c8;fill-rule:evenodd;stroke:#000000;stroke-width:0.39856905px;stroke-linecap:butt;stroke-linejoin:miter;stroke-opacity:1" />
      <path
         style="fill:#3771c8;fill-rule:evenodd;stroke:#000000;stroke-width:0.31532949px;stroke-linecap:butt;stroke-linejoin:miter;stroke-opacity:1"
         d="m 782.76585,685.48988 c 12.79657,-2.1045 16.48254,-10.47594 18.26722,-16.27235 1.08379,-5.84036 -1.06388,-7.53636 -0.98813,-7.55188 -0.0155,0.0336 6.99835,-8.0069 1.31751,-9.76495 -5.55235,-1.71669 -6.52833,0.24561 -9.71791,3.68415 -2.7891,3.00679 -4.44917,-1.10654 -4.44736,-1.10395 0,0 0.69469,-7.51568 -6.09398,-6.26436 -7.99088,1.47366 -3.9608,10.13466 -3.9533,10.13466 0,-0.24044 -4.61153,-9.721 -12.18849,-4.24001 -5.99807,7.2649 5.10327,11.8255 4.28242,11.05506 -0.2526,-0.23527 -0.49407,2.76118 -0.49407,2.76118 0.17865,-0.0517 -9.84666,0.68771 -8.72977,6.81763 1.71022,9.38491 12.14195,3.06109 11.85937,4.05387 0,0 0.26913,5.37241 10.88649,6.69095 z"
         id="path4382"
         inkscape:connector-curvature="0"
         sodipodi:nodetypes="cccsscsccscssc" />
      <path
         sodipodi:nodetypes="ccsc"
         inkscape:connector-curvature="0"
         id="path4384"
         d="m 783.361,675.61375 c -2.54116,0.87644 -11.53878,1.69083 -7.92986,-7.27783 4.46003,-8.23183 9.35621,-6.39105 12.52071,-4.15987 4.37471,3.08435 1.2234,10.64399 -4.59085,11.4377 z"
         style="opacity:0.85880007;fill:#5599ff;fill-rule:evenodd;stroke:#000000;stroke-width:0.34429681px;stroke-linecap:butt;stroke-linejoin:miter;stroke-opacity:1" />
      <path
         sodipodi:nodetypes="ccsccsc"
         inkscape:connector-curvature="0"
         id="path4386"
         d="m 993.86501,767.08429 c -1.01501,2.49488 2.11044,6.30831 -2.67663,10.80945 -3.79663,1.03673 -10.32573,3.7643 -8.68505,7.071 0.69133,1.39093 5.46548,6.20748 11.10909,1.00829 5.91896,-3.98665 5.52107,-7.41485 6.46348,-11.31101 0.3981,-4.04094 -0.78419,-5.73178 -1.91891,-7.06841 -0.89066,-1.04967 -2.95068,-1.39094 -4.29198,-0.50932 z"
         style="fill:#37c871;fill-rule:evenodd;stroke:#000000;stroke-width:0.25853741px;stroke-linecap:butt;stroke-linejoin:miter;stroke-opacity:1" />
      <path
         inkscape:connector-curvature="0"
         id="path4388"
         d="m 977.32844,758.71285 c 0,0 11.99692,8.56793 19.13824,8.56793 7.14102,0 -21.42345,-13.99722 -19.13824,-8.56793 z"
         style="fill:#ff0000;fill-rule:evenodd;stroke:#000000;stroke-width:0.25853741px;stroke-linecap:butt;stroke-linejoin:miter;stroke-opacity:1" />
      <path
         style="fill:#214478;fill-rule:evenodd;stroke:#000000;stroke-width:0.07033741px;stroke-linecap:butt;stroke-linejoin:miter;stroke-opacity:1"
         d="m 984.31697,777.94803 c 0,0 -4.25604,0.49122 -4.31137,-1.91318 -0.0551,-2.4044 0.27637,-3.33254 1.76865,-3.87806 1.49254,-0.5481 4.035,0.10859 4.14539,1.91059 0.11066,1.80201 0.44236,2.4044 -1.60267,3.88065 z"
         id="path4390"
         inkscape:connector-curvature="0" />
      <path
         inkscape:connector-curvature="0"
         id="path4392"
         d="m 983.29316,774.43709 c 0,0 2.57193,-1.25649 1.54347,-0.14478 -1.02898,1.10913 -1.97212,2.12259 -2.57245,2.17172 -0.59981,0.0465 -2.14327,0.81956 -1.37154,-0.0491 0.77173,-0.86868 2.22911,-1.83303 2.40052,-1.97781 z"
         style="fill:#c8ab37;fill-rule:evenodd;stroke:#000000;stroke-width:0.08231811px;stroke-linecap:butt;stroke-linejoin:miter;stroke-opacity:1" />
      <path
         inkscape:connector-curvature="0"
         id="path4394"
         d="m 984.52845,776.27012 c 0,0 0.50286,1.53054 -1.00623,0.2301 -1.50934,-1.30044 -2.07528,-2.44835 -2.07528,-2.44835 0,0 -1.1947,-1.15049 -0.12564,-0.61273 1.06905,0.53517 2.95534,2.06571 3.20715,2.83098 z"
         style="fill:#c8ab37;fill-rule:evenodd;stroke:#000000;stroke-width:0.08879412px;stroke-linecap:butt;stroke-linejoin:miter;stroke-opacity:1" />
      <path
         sodipodi:nodetypes="ccccc"
         style="fill:#ffff00;fill-rule:evenodd;stroke:#000000;stroke-width:0.13169907px;stroke-linecap:butt;stroke-linejoin:miter;stroke-opacity:1"
         d="m 1004.479,721.80921 c 2.0122,-5.75504 5.3062,-13.64302 10.1189,-19.08523 10.8319,-8.83681 13.3447,-11.07574 14.0965,-8.55759 -2.1632,2.01918 -18.6672,12.83639 -21.3629,27.21107 -5.6269,14.92278 -3.3458,3.87547 -2.853,0.42917 z"
         id="path4396"
         inkscape:connector-curvature="0" />
      <path
         sodipodi:nodetypes="ccccc"
         inkscape:connector-curvature="0"
         id="path4398"
         d="m 1002.0025,726.45513 c 0,0 0.9558,-17.15137 3.3253,-22.6608 0.599,-10.56643 11.9271,-28.72868 12.5928,-25.5254 -3.6117,-0.42659 -11.7877,32.82132 -13.3224,47.56313 -4.3411,14.41863 -2.5957,0.62307 -2.5957,0.62307 z"
         style="fill:#ffff00;fill-rule:evenodd;stroke:#000000;stroke-width:0.13169907px;stroke-linecap:butt;stroke-linejoin:miter;stroke-opacity:1" />
      <path
         sodipodi:nodetypes="ccccc"
         style="fill:#ffff00;fill-rule:evenodd;stroke:#000000;stroke-width:0.12046953px;stroke-linecap:butt;stroke-linejoin:miter;stroke-opacity:1"
         d="m 1000.7354,720.21921 c 0,0 1.6528,-17.9606 2.4626,-24.49125 0.7223,-7.36056 -2.05,-24.97213 -0.8121,-20.59768 4.9882,4.4908 4.286,30.06273 0.5116,44.46327 -3.61587,14.48326 -2.1621,0.62566 -2.1621,0.62566 z"
         id="path4400"
         inkscape:connector-curvature="0" />
      <path
         sodipodi:nodetypes="ccccc"
         inkscape:connector-curvature="0"
         id="path4402"
         d="m 998.27334,723.75859 c -1.33199,0.57136 0.48165,-16.09137 -1.6761,-20.65973 -2.45559,-6.75817 -3.53033,-14.07736 -1.8351,-11.99613 1.70841,2.0502 8.88746,19.90479 6.11106,32.15171 -4.34784,11.67296 -2.59986,0.50415 -2.59986,0.50415 z"
         style="fill:#ffff00;fill-rule:evenodd;stroke:#000000;stroke-width:0.11859455px;stroke-linecap:butt;stroke-linejoin:miter;stroke-opacity:1" />
      <path
         style="fill:#ff2a7f;fill-rule:evenodd;stroke:#000000;stroke-width:0.11847354px;stroke-linecap:butt;stroke-linejoin:miter;stroke-opacity:1"
         d="m 1003.0736,726.31552 c 0,0 -8.01957,-6.93656 -11.27171,-15.40107 -2.0758,-4.96392 -7.57257,2.63191 -7.20467,2.63191 -1.54993,0.55327 -5.47375,9.15481 -2.02305,14.18078 1.10033,6.91846 15.8879,-0.71874 16.86879,0.75493 1.39454,2.09932 7.03944,4.84499 9.62014,7.69665 2.5813,2.8465 10.1934,3.35582 10.9675,-0.0543 0.7732,-3.40235 4.423,-10.17345 6.4163,-11.17657 1.9934,-1.00571 0.7945,-6.70646 -4.9897,-4.47011 -5.7838,2.23893 -17.1041,4.52182 -18.3836,5.83777 z"
         id="path4406"
         inkscape:connector-curvature="0"
         sodipodi:nodetypes="ccccsccscc" />
      <path
         sodipodi:nodetypes="cccccccc"
         inkscape:connector-curvature="0"
         id="path4408"
         d="m 1003.842,722.484 c 0,0 8.0195,1.59 5.7866,5.11904 -2.2323,3.52645 -2.4083,5.54821 -2.4083,5.54821 0,0 0.2265,3.86772 -5.3091,-0.41624 -5.93988,-2.02435 -8.13435,-1.74772 -7.88279,-2.75343 0,0 -1.48711,-2.83615 0.40823,-5.35172 1.82321,-2.8103 1.89715,-4.64592 4.89644,-3.55489 3.00032,1.09361 4.50892,1.40903 4.50892,1.40903 z"
         style="fill:#ff2a7f;fill-rule:evenodd;stroke:#000000;stroke-width:0.18920846px;stroke-linecap:butt;stroke-linejoin:miter;stroke-opacity:1" />
      <path
         inkscape:connector-curvature="0"
         id="path4414"
         d="m 975.86538,751.48931 c 0.48889,-0.14995 0.44132,0.43434 0.71408,0.57137 0.0427,0.0258 0.10031,-0.0259 0.14271,0 0.0602,0.0284 0.0827,0.11117 0.14297,0.14219 0.0424,0.0259 0.10911,-0.0336 0.14272,0 0.0336,0.0336 -0.0207,0.10083 0,0.1422 0.0302,0.0595 0.11272,0.0827 0.14297,0.14219 0.0424,0.0853 -0.0675,0.21976 0,0.28698 0.0336,0.0336 0.1091,-0.0336 0.14271,0 0.0336,0.0336 -0.0336,0.10859 0,0.1422 0.0672,0.0672 0.21821,-0.0672 0.28568,0 0.0336,0.0336 -0.0207,0.10083 0,0.14219 0.03,0.062 0.11273,0.0827 0.14272,0.14478 0.0985,0.19649 -0.17296,0.12669 0.14297,0.28439 0.0424,0.0259 0.1091,-0.0336 0.14271,0 0.0336,0.0336 -0.0336,0.10859 0,0.1422 0.0336,0.0336 0.10031,-0.0258 0.14297,0 0.06,0.031 0.0825,0.11376 0.14272,0.14478 0.0851,0.0414 0.20036,-0.0439 0.28568,0 0.31567,0.15771 0.0442,0.0879 0.14271,0.28439 0.29732,0.59464 -0.0103,-0.15253 0.28569,0.1422 0.0336,0.0336 -0.0336,0.10858 0,0.14219 0.0672,0.0698 0.20062,-0.0414 0.28568,0 0.0602,0.031 0.0789,0.1241 0.14271,0.14478 0.0905,0.0284 0.20063,-0.0439 0.28569,0 0.0427,0.0259 -0.0336,0.10859 0,0.1422 0.0442,0.0439 0.66987,-0.0439 0.71408,0 0.0339,0.0336 -0.0336,0.10859 0,0.1422 0.0339,0.0336 0.0954,0 0.14297,0 0.0476,0 0.0951,0 0.14271,0 0.33325,0 0.66651,0 0.99976,0 0.61894,0 1.23788,0 1.85682,0 0.0951,0 0.19028,0 0.28568,0 0.0476,0 0.10911,0.0336 0.14272,0 0.0336,-0.0336 -0.0336,-0.10859 0,-0.1422 0.0336,-0.0336 0.0951,0 0.14271,0 0.0954,0 0.19054,0 0.28568,0 0.80948,0 1.61871,0 2.42819,0 0.0346,0 0.42374,0 0.42839,0 0.0336,0.0336 -0.0336,0.10859 0,0.1422 0.0672,0.0672 0.20037,-0.0414 0.28569,0 0.0602,0.031 0.0825,0.11375 0.14271,0.14219 0.0853,0.0439 0.21846,-0.0672 0.28568,0 0.0336,0.0336 -0.0336,0.11117 0,0.14478 0.0672,0.0672 0.21821,-0.0672 0.28569,0 0.0336,0.0336 -0.0336,0.10859 0,0.1422 0.0752,0.075 0.197,0.0827 0.28568,0.14219 0.11195,0.075 0.16521,0.22493 0.28568,0.28698 0.0424,0.0258 0.10006,-0.0258 0.14272,0 0.0602,0.0284 0.0869,0.10341 0.14271,0.1422 0.0887,0.0595 0.21045,0.0672 0.28568,0.14219 0.0336,0.0336 -0.0336,0.10859 0,0.1422 0.0336,0.0336 0.10032,-0.0259 0.14298,0 0.59437,0.29731 -0.1528,0 0.14271,0.28697 0.0336,0.0336 0.1091,-0.0336 0.14297,0 0.0336,0.0336 -0.0339,0.10859 0,0.1422 0.0714,0.0724 0.35704,-0.0698 0.4284,0 0.0336,0.0336 -0.0207,0.10083 0,0.14219 0.03,0.0621 0.11272,0.0827 0.14271,0.14479 0.0427,0.0853 -0.0424,0.19907 0,0.28439 0.29732,0.59463 -0.0103,-0.15254 0.28568,0.14219 0.0336,0.0336 -0.0207,0.10083 0,0.14478 0.0302,0.0595 0.0951,0.0931 0.14297,0.1422 0.0476,0.0465 0.0825,0.11117 0.14272,0.14219 0.0426,0.0259 0.1091,-0.0336 0.14271,0 0.0339,0.0336 -0.0336,0.10859 0,0.1422 0.0339,0.0336 0.10031,-0.0258 0.14297,0 0.0602,0.031 0.0869,0.106 0.14271,0.14478 0.0887,0.0569 0.21045,0.0672 0.28569,0.1422 0.0336,0.0336 -0.0336,0.10858 0,0.14219 0.0672,0.0672 0.19545,-0.031 0.28568,0 0.10109,0.0336 0.1846,0.10859 0.28568,0.1422 0.045,0.0259 0.10911,-0.0336 0.14272,0 0.0336,0.0336 -0.0336,0.11117 0,0.14478 0.0336,0.0336 0.1091,-0.0336 0.14297,0 0.0336,0.0336 -0.0339,0.10858 0,0.14219 0.0336,0.0336 0.1091,-0.0336 0.14271,0 0.0336,0.0336 -0.0336,0.10859 0,0.1422 0.0336,0.0336 0.1091,-0.0336 0.14297,0 0.29525,0.29473 -0.45166,0 0.14271,0.28698 0.0851,0.0414 0.20037,-0.044 0.28569,0 0.14038,0.0698 0.43072,0.49897 0.57111,0.56878 0.0427,0.0258 0.10936,-0.0336 0.14297,0 0.0336,0.0336 -0.0336,0.11117 0,0.14478 0.0336,0.0336 0.1091,-0.0336 0.14271,0 0.0339,0.0336 -0.0207,0.0982 0,0.14219 0.0303,0.0595 0.0954,0.0957 0.14297,0.1422 0.0476,0.0491 0.0825,0.11376 0.14271,0.1422 0.0776,0.0388 0.53233,-0.0388 0.57137,0 0.0336,0.0336 -0.0336,0.11117 0,0.14478 0.0672,0.0672 0.1952,-0.031 0.28569,0 0.10083,0.0336 0.18459,0.10858 0.28568,0.14219 0.045,0.0259 0.1091,-0.0336 0.14271,0 0.0336,0.0336 -0.0336,0.10859 0,0.1422 0.0181,0.0258 0.37669,-0.0259 0.4284,0 0.14607,0.0362 0.28258,0.106 0.42865,0.14219 0.046,0.0259 0.0975,0 0.14272,0 0.10109,0.0336 0.18459,0.11117 0.28568,0.14478 0.0902,0.0284 0.19028,0 0.28568,0 0.19029,0 0.38083,0 0.57111,0 0.0478,0 0.10937,-0.0336 0.14298,0 0.2955,0.29474 -0.45167,-0.0258 0.14271,0.2844 0.0427,0.0258 0.0954,0 0.14297,0 0.0476,0 0.0951,0 0.14271,0 0.12177,0 0.94677,-0.0259 0.99977,0 0.0602,0.031 0.0827,0.11375 0.14297,0.14219 0.0434,0.0259 0.36402,0 0.42836,0 0.3333,0 0.6665,0 0.9998,0 0.1637,0 0.4232,-0.0362 0.5714,0 0.1031,0.0259 0.1846,0.11117 0.2854,0.14478 0.078,0.0259 0.8883,0 0.9998,0 0.6189,0 1.2378,0 1.8568,0"
         style="fill:none;fill-rule:evenodd;stroke:#000000;stroke-width:0.25853741px;stroke-linecap:butt;stroke-linejoin:miter;stroke-opacity:1" />
      <path
         inkscape:connector-curvature="0"
         id="path4420"
         d="m 1002.002,759.77285 c 0,0.18873 0,0.38005 0,0.57137 0,0.33351 0,0.66444 0,0.99795 0,0.0491 0,0.0957 0,0.14478 0,0.0465 0.034,0.10859 0,0.1422 -0.034,0.0336 -0.1091,-0.0336 -0.143,0 -0.01,0 0,0.51966 0,0.57137 0,0.0465 0,0.0956 0,0.14219 0,0.0491 0.034,0.10859 0,0.1422 -0.034,0.0336 -0.1215,-0.0414 -0.1427,0 -0.043,0.0853 0.043,0.20166 0,0.28697 -0.021,0.0414 -0.1427,0.0465 -0.1427,0 0,-0.0491 0.1427,-0.0491 0.1427,0 0,0.0672 -0.095,0.0957 -0.1427,0.1422"
         style="fill:#ff0000;fill-rule:evenodd;stroke:#000000;stroke-width:0.25853741px;stroke-linecap:butt;stroke-linejoin:miter;stroke-opacity:1" />
      <path
         inkscape:connector-curvature="0"
         id="path4422"
         d="m 998.71699,759.48587 c -0.14272,0.19132 -0.28569,0.38264 -0.4284,0.57137 -0.0476,0 -0.10031,-0.0258 -0.14297,0 -0.0602,0.031 -0.11272,0.0827 -0.14271,0.1422 0,0.38263 0.0476,-0.0465 -0.14298,0.14478 -0.0672,0.0672 0.0675,0.21717 0,0.28439 -0.0336,0.0336 -0.1091,-0.0336 -0.14271,0 -0.0336,0.0336 0.0336,0.10858 0,0.14219 -0.0336,0.0336 -0.1091,-0.0336 -0.14271,0 -0.0675,0.0672 0.0672,0.21976 0,0.28698 -0.0675,0.0672 -0.21847,-0.0672 -0.28569,0 -0.0675,0.0672 0.0672,0.21717 0,0.28439 -0.0336,0.0336 -0.1091,-0.0336 -0.14297,0 -0.2955,0.29732 0.45167,0 -0.14271,0.28698 -0.0427,0.0258 -0.1091,-0.0336 -0.14297,0 -0.0336,0.0336 0.0207,0.10083 0,0.14219 -0.03,0.0595 -0.11272,0.0827 -0.14271,0.1422 -0.0207,0.0439 0.0336,0.11117 0,0.14478 -0.0336,0.0336 -0.14272,0.0465 -0.14272,0 0,-0.0491 0.0951,0 0.14272,0"
         style="fill:none;fill-rule:evenodd;stroke:#000000;stroke-width:0.25853741px;stroke-linecap:butt;stroke-linejoin:miter;stroke-opacity:1" />
      <path
         inkscape:connector-curvature="0"
         id="path4424"
         d="m 994.00385,758.34314 c -0.15435,0.6179 -0.14297,0.37488 -0.14297,0.71615 0,0.0931 0.0427,0.19907 0,0.28439 -0.0207,0.0414 -0.10911,-0.0336 -0.14272,0 -0.0672,0.0672 0.0427,0.20166 0,0.28439 -0.03,0.062 -0.11272,0.0827 -0.14271,0.14478 -0.0427,0.0853 0.0672,0.21717 0,0.28439 -0.0339,0.0336 -0.10936,-0.0336 -0.14297,0 -0.005,0 0,0.51966 0,0.57137 0,0.57137 0.0476,-0.23786 -0.14271,0.14219 -0.0427,0.0853 0.0424,0.20166 0,0.28698 -0.0207,0.0414 -0.14297,0.0465 -0.14297,0 0,-0.0491 0.0954,0 0.14297,0"
         style="fill:none;fill-rule:evenodd;stroke:#000000;stroke-width:0.25853741px;stroke-linecap:butt;stroke-linejoin:miter;stroke-opacity:1" />
      <path
         inkscape:connector-curvature="0"
         id="path4426"
         d="m 991.14727,756.62903 c -0.60937,0.45762 -0.57111,0.19132 -0.57111,0.57137 0,0.0491 0.0336,0.11117 0,0.14478 -0.0339,0.0336 -0.10936,-0.0336 -0.14297,0 -0.0336,0.0336 0.0155,0.0957 0,0.1422 -0.0336,0.10083 -0.0675,0.20941 -0.14271,0.28439 -0.0336,0.0336 -0.12152,-0.0414 -0.14298,0 -0.0424,0.0853 0.0427,0.20166 0,0.28698 -0.0207,0.0414 -0.10005,-0.0259 -0.14271,0 -0.17658,0.0879 -0.14271,0.27146 -0.14271,0"
         style="fill:none;fill-rule:evenodd;stroke:#000000;stroke-width:0.25853741px;stroke-linecap:butt;stroke-linejoin:miter;stroke-opacity:1" />
      <path
         inkscape:connector-curvature="0"
         id="path4428"
         d="m 987.71958,753.91698 c -0.14478,0.33868 -0.14271,0.54034 -0.14271,0.85576 0,0.0491 0.0336,0.10858 0,0.14219 -0.0339,0.0336 -0.10936,-0.0336 -0.14297,0 -0.0336,0.0336 0,0.0957 0,0.14478 0,0.0957 0,0.18873 0,0.28439 0,0.0931 0.0181,0.53776 0,0.57137 -0.0207,0.0439 -0.10911,-0.0336 -0.14272,0 -0.0336,0.0336 0.0476,0.1422 0,0.1422 -0.0476,0 0,-0.0931 0,-0.1422"
         style="fill:none;fill-rule:evenodd;stroke:#000000;stroke-width:0.25853741px;stroke-linecap:butt;stroke-linejoin:miter;stroke-opacity:1" />
      <path
         inkscape:connector-curvature="0"
         id="path4430"
         d="m 984.29189,753.63 c -0.0951,0.19132 -0.19054,0.38264 -0.28568,0.57137 0,0.0491 0.0207,0.10083 0,0.14219 -0.03,0.062 -0.12152,0.0802 -0.14272,0.14478 -0.0302,0.0905 0.03,0.19391 0,0.2844 -0.0207,0.0646 -0.11272,0.0827 -0.14297,0.14219 -0.0207,0.0439 0.0336,0.11117 0,0.14478 -0.0336,0.0336 -0.10031,-0.0258 -0.14271,0 -0.17658,0.0879 -0.14297,0.13703 -0.14297,0.28439 0,0.0491 0.0476,0.1422 0,0.1422 -0.0476,0 0,-0.0931 0,-0.1422"
         style="fill:none;fill-rule:evenodd;stroke:#000000;stroke-width:0.25853741px;stroke-linecap:butt;stroke-linejoin:miter;stroke-opacity:1" />
      <path
         inkscape:connector-curvature="0"
         id="path4432"
         d="m 980.29283,754.05917 c 0,0.52483 0,1.04708 0,1.57191 0,0.0957 0,0.38005 0,0.28439 0,-0.0957 0,-0.18873 0,-0.28439"
         style="fill:none;fill-rule:evenodd;stroke:#000000;stroke-width:0.25853741px;stroke-linecap:butt;stroke-linejoin:miter;stroke-opacity:1" />
      <path
         inkscape:connector-curvature="0"
         id="path4434"
         d="m 978.57899,752.48726 c -0.19054,0.0491 -0.39582,0.0569 -0.57137,0.14479 -0.0427,0.0258 0.0336,0.10858 0,0.14219 -0.0336,0.0336 -0.0977,-0.0258 -0.14271,0 -1.03467,0.34386 0.22518,-0.0414 -0.42866,0.28439 -0.0424,0.0259 -0.1091,-0.0336 -0.14271,0 -0.0336,0.0336 0.0336,0.11117 0,0.14478 -0.0672,0.0672 -0.2182,-0.0672 -0.28568,0 -0.0336,0.0336 0.0336,0.10859 0,0.1422 -0.0336,0.0336 -0.0951,0 -0.14272,0 -0.0476,0 -0.14297,0.0465 -0.14297,0 0,-0.0491 0.14297,-0.0491 0.14297,0 0,0.0672 -0.0954,0.0957 -0.14297,0.14219"
         style="fill:none;fill-rule:evenodd;stroke:#000000;stroke-width:0.25853741px;stroke-linecap:butt;stroke-linejoin:miter;stroke-opacity:1" />
      <path
         inkscape:connector-curvature="0"
         id="path4436"
         d="m 1009.143,728.35021 c 0.3806,-0.075 0.2358,-0.0698 0.4284,-0.0698 0.048,0 0.1003,0.0258 0.143,0 0.021,0 -0.015,-0.0543 0,-0.0724 0.036,-0.0362 0.1784,0.0362 0.2143,0 0.015,-0.0259 -0.018,-0.0543 0,-0.0724 0.034,-0.0336 0.1091,0.0336 0.1427,0 0.015,-0.0259 -0.016,-0.0543 0,-0.0698 0.034,-0.0336 0.1091,0.0336 0.1427,0 0.018,-0.0258 -0.015,-0.0543 0,-0.0724 0.018,-0.0258 0.048,0 0.072,0 0.071,0 0.1427,0 0.214,0 0.4525,0 0.9047,0 1.3568,0"
         style="fill:none;fill-rule:evenodd;stroke:#000000;stroke-width:0.25853741px;stroke-linecap:butt;stroke-linejoin:miter;stroke-opacity:1" />
      <path
         inkscape:connector-curvature="0"
         id="path4440"
         d="m 1008.2862,729.92212 c 0.689,0 0.1259,-0.0543 0.4998,0.0724 0.023,0 0.055,-0.0258 0.071,0 0.016,0.0258 -0.015,0.0543 0,0.0698 0.036,0.0362 0.1787,-0.0362 0.2144,0 0.018,0.0259 -0.021,0.062 0,0.0724 0.043,0.0259 0.1003,-0.0258 0.1427,0 0.021,0 -0.018,0.0543 0,0.0698 0.018,0.0258 0.049,0 0.072,0 0.05,0.0258 0.092,0.0569 0.1427,0.0724 0.023,0 0.05,0 0.071,0 0.03,0.0258 0.041,0.0569 0.071,0.0724 0.038,0.0259 0.1833,-0.0258 0.2143,0 0.056,0.0362 0.085,0.10859 0.143,0.1422 0.5797,0.34644 0.03,0 0.2854,0.0724 0.051,0.0258 0.093,0.0543 0.143,0.0698 0.023,0 0.05,0 0.071,0 0.2368,0.23786 -0.067,-0.0336 0.1427,0.0724 0.03,0.0259 0.041,0.0569 0.072,0.0698 0.021,0 0.05,0 0.071,0 0,0 0.1427,0.14478 0.1427,0.14478 0.042,0.0259 0.1652,-0.0259 0.2143,0 0.2782,0.0931 0.01,0.0698 0.2857,0.0698"
         style="fill:none;fill-rule:evenodd;stroke:#000000;stroke-width:0.25853741px;stroke-linecap:butt;stroke-linejoin:miter;stroke-opacity:1" />
      <path
         inkscape:connector-curvature="0"
         id="path4442"
         d="m 1007.7862,731.27944 c 0,0.11893 -0.021,0.23785 0,0.35678 0.01,0.0336 0.053,0.0439 0.071,0.0698 0.03,0.0465 0.042,0.10083 0.072,0.14478 0.018,0.0284 0.053,0.0439 0.071,0.0698 0.029,0.0439 0.048,0.0957 0.071,0.14478 0.048,0.0931 0.095,0.18874 0.1427,0.2844 0.023,0.0465 0.04,0.10082 0.072,0.14219 0.04,0.0543 0.087,0.106 0.1427,0.14478 0.021,0.0259 0.061,-0.0258 0.071,0 0.046,0.0931 -0.066,0.16805 0.072,0.212 0.045,0.0259 0.1032,-0.0258 0.1427,0 0.044,0.031 0.042,0.10083 0.071,0.14478 0.018,0.0284 0.048,0.0465 0.071,0.0698 0.023,0.0258 0.041,0.0569 0.072,0.0724 0.021,0 0.05,0 0.071,0 0.03,0.0258 0.048,0.0465 0.071,0.0724 0.095,0.0931 0.1905,0.18873 0.2857,0.28439 0.023,0.0258 0.048,0.0465 0.071,0.0724 0.023,0.0258 0.041,0.0543 0.071,0.0698 0.021,0 0.05,0 0.071,0 0.03,0.0258 0.041,0.0569 0.072,0.0724 0.021,0 0.049,0 0.071,0 0.05,0.0259 0.092,0.0543 0.1427,0.0724 0.023,0 0.055,-0.0259 0.072,0 0.015,0.0258 -0.018,0.0543 0,0.0698 0.095,0.0957 0.071,-0.11893 0.071,0.0724"
         style="fill:none;fill-rule:evenodd;stroke:#000000;stroke-width:0.25853741px;stroke-linecap:butt;stroke-linejoin:miter;stroke-opacity:1" />
      <path
         inkscape:connector-curvature="0"
         id="path4448"
         d="m 995.2893,722.9959 c -0.11919,0 -0.24044,0.0258 -0.35704,0 -0.0233,0 0.0103,-0.0517 0,-0.0724 -0.0155,-0.031 -0.0528,-0.0439 -0.0716,-0.0724 -0.0295,-0.0439 -0.0476,-0.0931 -0.0713,-0.1422 -0.0233,-0.0465 -0.0419,-0.0982 -0.0714,-0.14219 -0.0434,-0.0646 -0.18253,-0.14995 -0.21433,-0.21459 -0.0207,-0.0414 0.0207,-0.10083 0,-0.14219 -0.1484,-0.29732 0.005,0.075 -0.14271,-0.0724 -0.0155,-0.0259 0.0103,-0.0491 0,-0.0698 -0.0155,-0.031 -0.0564,-0.0414 -0.0714,-0.0724 -0.0103,-0.0258 0.0181,-0.0543 0,-0.0724 -0.0377,-0.0362 -0.0985,-0.0414 -0.14297,-0.0698 -0.0279,-0.0259 -0.0476,-0.0491 -0.0714,-0.0724 -0.0713,-0.0698 -0.14271,-0.1422 -0.21406,-0.21459 -0.0233,-0.0258 -0.0414,-0.0569 -0.0716,-0.0698 -0.0207,0 -0.0515,0 -0.0714,0 -0.0561,-0.0388 -0.0951,-0.0957 -0.14271,-0.14478 -0.0233,-0.0258 -0.0564,-0.0414 -0.0716,-0.0698 -0.0103,-0.0259 0.0103,-0.0517 0,-0.0724 -0.0962,-0.19132 -0.0318,0 -0.14272,-0.0698 -0.21613,0.17581 -0.1228,-0.19649 -0.14271,-0.21458 -0.0181,-0.0259 -0.0501,0 -0.0716,0 -0.038,-0.0259 -0.17658,-0.17839 -0.21407,-0.21459 -0.0476,-0.0491 -0.0954,-0.0957 -0.14297,-0.1422 -0.0233,-0.0258 -0.0564,-0.0414 -0.0714,-0.0724 -0.0103,-0.0258 0.0103,-0.0491 0,-0.0724 -0.03,-0.0595 -0.12151,-0.0776 -0.14271,-0.14219 -0.0129,-0.0388 0,-0.22493 0,-0.28439"
         style="fill:none;fill-rule:evenodd;stroke:#000000;stroke-width:0.25853741px;stroke-linecap:butt;stroke-linejoin:miter;stroke-opacity:1" />
      <path
         inkscape:connector-curvature="0"
         id="path4450"
         d="m 994.0752,725.28137 c -1.21383,0 -2.42792,0 -3.64201,0"
         style="fill:none;fill-rule:evenodd;stroke:#000000;stroke-width:0.25853741px;stroke-linecap:butt;stroke-linejoin:miter;stroke-opacity:1" />
    </g>
  </g>
</svg>
